<?xml version="1.0" ?><svg data-name="Layer 1" id="Layer_1" viewBox="0 0 100 100" xmlns="http://www.w3.org/2000/svg"><title/><path d="M93.14,70.13,83,59.94a6.33,6.33,0,0,0-8.95,0L63.45,70.49,29.51,36.55,40.07,26a6.33,6.33,0,0,0,0-8.94L29.87,6.85a6.33,6.33,0,0,0-8.95,0L6.85,20.92l0,0A6.32,6.32,0,0,0,5,25.39v1.75H5c.17,5.15,2.49,11.73,6.75,19.08A117.51,117.51,0,0,0,30.25,69.75,117.65,117.65,0,0,0,53.68,88.19C61,92.45,67.58,94.78,72.74,95v0h1.87a6.31,6.31,0,0,0,4.45-1.83L93.15,79.08l0,0a6.33,6.33,0,0,0,0-8.93Zm-2,7L77.08,91.17a3.54,3.54,0,0,1-1.28.81,3.5,3.5,0,0,1-1.2.21H72.84C68.15,92,62,89.77,55.1,85.76a114.81,114.81,0,0,1-22.85-18,114.67,114.67,0,0,1-18-22.94c-4-6.94-6.22-13.08-6.37-17.77V25.39A3.51,3.51,0,0,1,8,24.2a3.57,3.57,0,0,1,.82-1.29L22.9,8.84a3.52,3.52,0,0,1,5,0L38.07,19a3.52,3.52,0,0,1,0,5L27.52,34.56l-2,2,2,2L61.46,72.48l2,2,2-2L76,61.93a3.51,3.51,0,0,1,5,0L91.16,72.12a3.52,3.52,0,0,1,0,5Z"/></svg>